Coordinates
version=1
nRows=29
nColumns=24
inDegrees=yes

Units are S.I. units (second, meters, Newtons, ...)
Angles are in degrees.

endheader
time	pelvis_tilt	pelvis_list	pelvis_rotation	pelvis_tx	pelvis_ty	pelvis_tz	hip_flexion_r	hip_adduction_r	hip_rotation_r	knee_angle_r	ankle_angle_r	subtalar_angle_r	mtp_angle_r	hip_flexion_l	hip_adduction_l	hip_rotation_l	knee_angle_l	ankle_angle_l	subtalar_angle_l	mtp_angle_l	lumbar_extension	lumbar_bending	lumbar_rotation
      1.29150000	     -0.96841204	      6.77341294	      1.01489290	      0.16565399	      0.99423507	      0.29631157	     18.84913268	     -8.20779997	     -0.05478693	    -70.71448402	     -2.75378671	     -9.61240702	      4.88868684	     10.07379564	     12.31332018	      2.01906696	    -11.93924041	      0.87596177	    -11.86081526	     -0.43692915	     -0.62409760	     -5.27027798	      2.40843806
      1.29566667	     -0.86198223	      6.71071572	      1.06500959	      0.17076606	      0.99505650	      0.29605381	     19.29450503	     -8.09963310	      0.05968393	    -70.56571019	     -1.93301170	     -9.71856873	      0.88635976	      9.43357161	     12.26988541	      2.24454628	    -11.59248449	      0.93379759	    -11.96446770	     -1.06360587	     -0.75199448	     -5.20003187	      2.28271740
      1.29983333	     -0.81965294	      6.63886202	      1.16287749	      0.17582363	      0.99572456	      0.29574889	     19.79354645	     -8.00106269	      0.12406154	    -70.36577881	     -1.20599174	     -9.95828717	      0.88657651	      8.91091882	     12.21535416	      2.45107305	    -11.35012231	      1.12982967	    -11.87378396	     -1.05976743	     -0.81031501	     -5.11465268	      2.21933212
      1.30400000	     -0.73819341	      6.55751233	      1.23711203	      0.18088612	      0.99644547	      0.29548683	     20.23440220	     -7.88050710	      0.20521394	    -70.09779068	     -0.49838717	    -10.19714953	      0.87947870	      8.33845736	     12.14406893	      2.63890162	    -11.08402649	      1.27745516	    -11.82505617	     -1.06092679	     -0.91665957	     -5.02202651	      2.12819512
      1.30816667	     -0.67481489	      6.47766155	      1.31460430	      0.18594459	      0.99710138	      0.29521705	     20.68237798	     -7.76845814	      0.27606244	    -69.77901591	      0.17836361	    -10.41754737	      0.86798363	      7.78904388	     12.07419785	      2.83636195	    -10.82338672	      1.42119553	    -11.80057973	     -1.06488463	     -0.99556353	     -4.93282706	      2.03966865
      1.31233333	     -0.60417515	      6.39371349	      1.39609631	      0.19101147	      0.99774328	      0.29495528	     21.10220758	     -7.65303016	      0.33566620	    -69.40047206	      0.83761669	    -10.62268727	      0.85613704	      7.23124513	     11.99693887	      3.03385925	    -10.56199803	      1.57286493	    -11.77981750	     -1.06984655	     -1.07019392	     -4.83439767	      1.96007939
      1.31650000	     -0.52723744	      6.32357080	      1.46996173	      0.19600622	      0.99833868	      0.29470560	     21.51518818	     -7.54663946	      0.41229845	    -68.98597155	      1.46595338	    -10.85772319	      0.82341982	      6.67349032	     11.93514135	      3.26556354	    -10.30295163	      1.69980531	    -11.79418244	     -1.08535670	     -1.20013801	     -4.75851594	      1.83836341
      1.32066667	     -0.47685271	      6.23372413	      1.55417763	      0.20104143	      0.99888179	      0.29443674	     21.93160683	     -7.43349923	      0.45252465	    -68.50680212	      2.07383513	    -11.03970101	      0.80296245	      6.15181381	     11.84903668	      3.46493944	    -10.06315898	      1.85118795	    -11.78359026	     -1.09586811	     -1.25498672	     -4.64221695	      1.76818233
      1.32483333	     -0.40139925	      6.15225879	      1.63459215	      0.20604979	      0.99942704	      0.29420376	     22.30588655	     -7.32020118	      0.50382755	    -67.97425613	      2.65712101	    -11.25370333	      0.76675628	      5.60500350	     11.76789724	      3.67933596	     -9.82157999	      1.99402982	    -11.79204568	     -1.11490613	     -1.35355807	     -4.56973276	      1.66629670
      1.32900000	     -0.33901047	      6.07461216	      1.71440530	      0.21105108	      0.99990774	      0.29395715	     22.68370943	     -7.21989603	      0.54331565	    -67.39908693	      3.21274379	    -11.44462608	      0.72768665	      5.07679323	     11.69009171	      3.88297737	     -9.58571905	      2.14235086	    -11.79854863	     -1.13597728	     -1.43708656	     -4.47730183	      1.57707190
      1.33316667	     -0.27835298	      5.99616674	      1.79465984	      0.21604788	      1.00036533	      0.29371770	     23.04533896	     -7.11954229	      0.57637321	    -66.76933761	      3.73911827	    -11.62426941	      0.68811793	      4.55295948	     11.60845218	      4.08487193	     -9.35199441	      2.28973787	    -11.79810847	     -1.15745955	     -1.51939927	     -4.38217488	      1.49353516
      1.33733333	     -0.21198582	      5.91454152	      1.87515126	      0.22103269	      1.00079192	      0.29349214	     23.38451132	     -7.01588138	      0.60413477	    -66.08884014	      4.23656953	    -11.80287003	      0.64645893	      4.02682056	     11.51948524	      4.28177489	     -9.12245483	      2.44576318	    -11.79522517	     -1.17989830	     -1.61040140	     -4.28697920	      1.41167257
      1.34150000	     -0.14449264	      5.84505233	      1.95283901	      0.22600894	      1.00118498	      0.29327648	     23.70882586	     -6.92481589	      0.63166355	    -65.36300828	      4.71208099	    -11.98913118	      0.59540662	      3.49915880	     11.44109312	      4.47616376	     -8.88815305	      2.59659536	    -11.79740692	     -1.20771716	     -1.70268071	     -4.20834008	      1.32174281
      1.34566667	     -0.11883599	      5.78509682	      2.02544241	      0.23096762	      1.00145239	      0.29305786	     24.07599376	     -6.85049887	      0.65513552	    -64.61111223	      5.13948009	    -12.13996646	      0.55441765	      3.02106403	     11.37260119	      4.65829869	     -8.65744383	      2.75943040	    -11.78507929	     -1.22935496	     -1.76317217	     -4.12754323	      1.25314628
      1.34983333	     -0.05275925	      5.72432177	      2.10660038	      0.23593138	      1.00177042	      0.29286148	     24.36427733	     -6.76958242	      0.67458335	    -63.78592325	      5.56432131	    -12.31691147	      0.50053310	      2.50904566	     11.29831070	      4.84406429	     -8.45065039	      2.91123989	    -11.78892996	     -1.25839610	     -1.84430491	     -4.06986986	      1.16652734
      1.35400000	      0.00364961	      5.66384882	      2.18345692	      0.24089637	      1.00204482	      0.29267699	     24.65044447	     -6.69247602	      0.68171146	    -62.91957113	      5.94060264	    -12.47914380	      0.44298759	      1.99944896	     11.22104190	      5.02481808	     -8.22331809	      3.06487924	    -11.78518042	     -1.28882464	     -1.93094832	     -3.99933917	      1.08444580
      1.35816667	      0.05076489	      5.60297576	      2.25851310	      0.24586020	      1.00227580	      0.29249243	     24.92753637	     -6.61446223	      0.68991389	    -62.00305922	      6.28028884	    -12.64100102	      0.38233765	      1.50303405	     11.14180228	      5.19917358	     -8.00114687	      3.22011300	    -11.77299118	     -1.31998572	     -1.99821221	     -3.93312486	      1.00359145
      1.36233333	      0.10161915	      5.55286001	      2.33302137	      0.25081256	      1.00245959	      0.29232268	     25.18829980	     -6.55096036	      0.68699155	    -61.05311253	      6.60258708	    -12.79761503	      0.31664773	      1.00120639	     11.07075118	      5.36833564	     -7.77364750	      3.37657400	    -11.75824217	     -1.35325960	     -2.08268200	     -3.87965672	      0.92455276
      1.36650000	      0.13104852	      5.52350964	      2.40324765	      0.25575553	      1.00257804	      0.29215626	     25.45901823	     -6.50835144	      0.69594515	    -60.06273355	      6.88630472	    -12.94164584	      0.24943672	      0.52594401	     11.02151033	      5.53351198	     -7.55225324	      3.52858547	    -11.73973072	     -1.38666203	     -2.12828784	     -3.84575924	      0.84888363
      1.37066667	      0.19402444	      5.48207446	      2.47201769	      0.26072280	      1.00273202	      0.29201431	     25.66483460	     -6.45293264	      0.68259665	    -59.01556677	      7.13490439	    -13.10068806	      0.16492234	      0.00610553	     10.95307105	      5.68885777	     -7.31471435	      3.67865882	    -11.72330155	     -1.42835533	     -2.21617807	     -3.79877158	      0.76234656
      1.37483333	      0.22007140	      5.44027341	      2.54794871	      0.26566534	      1.00278515	      0.29187809	     25.89821278	     -6.40031667	      0.65838172	    -57.93598252	      7.37354435	    -13.23769177	      0.08679197	     -0.46587916	     10.88340463	      5.84349541	     -7.08979792	      3.83113722	    -11.69468114	     -1.46569482	     -2.28092015	     -3.76395578	      0.69042791
      1.37900000	      0.24071889	      5.41302959	      2.61637443	      0.27060268	      1.00278962	      0.29175439	     26.12411472	     -6.36182948	      0.63660391	    -56.82162832	      7.57615335	    -13.37129704	      0.00242999	     -0.93308143	     10.82833077	      5.98577660	     -6.86110130	      3.98371268	    -11.66138915	     -1.50524968	     -2.33129465	     -3.74657035	      0.61566959
      1.38316667	      0.27220048	      5.39904679	      2.67170319	      0.27555385	      1.00277007	      0.29164711	     26.32142153	     -6.33281266	      0.62460160	    -55.66809464	      7.73238366	    -13.53199746	     -0.13872368	     -1.41920762	     10.78540450	      6.12047753	     -6.62009098	      4.13115829	    -11.63116712	     -1.57251406	     -2.38826466	     -3.73344968	      0.51142265
      1.38733333	      0.27032890	      5.36618763	      2.75134841	      0.28048908	      1.00269156	      0.29153048	     26.52932848	     -6.29702439	      0.56771153	    -54.46992470	      7.91232855	    -13.61999447	     -0.22173043	     -1.85308104	     10.72042743	      6.25183113	     -6.40921320	      4.28568383	    -11.57901976	     -1.60950899	     -2.41415147	     -3.70877363	      0.46660478
      1.39150000	      0.31766367	      5.35193181	      2.80080463	      0.28544793	      1.00263498	      0.29144750	     26.66883386	     -6.26856690	      0.53237827	    -53.23539108	      8.02732380	    -13.75334610	     -0.35600453	     -2.35913523	     10.67189303	      6.36429295	     -6.16092916	      4.43667720	    -11.52035206	     -1.67001442	     -2.49054067	     -3.69476134	      0.37557102
      1.39566667	      0.27952028	      5.32563378	      2.87872703	      0.29037559	      1.00242538	      0.29133501	     26.88263994	     -6.24196417	      0.46369674	    -51.96824815	      8.16859253	    -13.82232791	     -0.42491304	     -2.74354269	     10.61531265	      6.47893097	     -5.97078190	      4.59154303	    -11.46250967	     -1.69856629	     -2.46443015	     -3.66827853	      0.34175119
      1.39983333	      0.31280077	      5.32074298	      2.91850883	      0.29533382	      1.00228254	      0.29128700	     27.00571014	     -6.22286194	      0.41189072	    -50.66933956	      8.23954095	    -13.94212340	     -0.56487885	     -3.23709030	     10.57331004	      6.56803526	     -5.71367014	      4.74735208	    -11.38606783	     -1.75958541	     -2.53679099	     -3.67985987	      0.24720688
      1.40400000	      0.26804624	      5.29780822	      2.99138250	      0.30026906	      1.00200002	      0.29119371	     27.18998064	     -6.20511066	      0.31287226	    -49.33368931	      8.33980309	    -13.98227957	     -0.63870156	     -3.61237857	     10.51803346	      6.65896258	     -5.52650817	      4.90365656	    -11.33120277	     -1.79042959	     -2.51003287	     -3.66068794	      0.21485150
      1.40816667	      0.29028515	      5.29832152	      3.02656132	      0.30522734	      1.00176507	      0.29114662	     27.28954076	     -6.19615592	      0.23753151	    -47.97065009	      8.38624707	    -14.05484941	     -0.77922958	     -4.08563098	     10.48310182	      6.72776145	     -5.28634079	      5.06088982	    -11.24975061	     -1.85273482	     -2.56369575	     -3.66937006	      0.13190072
